<svg width="45" height="49" viewBox="0 0 45 49" fill="none" xmlns="http://www.w3.org/2000/svg">
<g clip-path="url(#clip0_1_13)">
<path d="M38.0953 9.13303C35.1774 7.69792 32.0983 6.67367 28.935 6.08583C28.9063 6.08066 28.8769 6.08513 28.8507 6.09862C28.8245 6.11211 28.8029 6.13397 28.7887 6.16118C28.3922 6.9147 27.9534 7.90029 27.6469 8.67188C24.237 8.11732 20.7686 8.11732 17.3587 8.67188C17.0168 7.81233 16.6299 6.9741 16.2 6.16118C16.1856 6.13427 16.1639 6.11266 16.1378 6.09921C16.1117 6.08577 16.0824 6.0811 16.0537 6.08583C12.8899 6.67128 9.81054 7.69562 6.89342 9.13303C6.86847 9.14324 6.84759 9.16241 6.83436 9.18728C1.00124 18.5278 -0.599076 27.6392 0.185612 36.6362C0.188424 36.6784 0.213737 36.7206 0.244674 36.7477C3.64143 39.444 7.44073 41.5028 11.4806 42.836C11.5091 42.8457 11.5398 42.8453 11.5681 42.835C11.5964 42.8247 11.621 42.805 11.6381 42.7788C12.5044 41.5129 13.275 40.1777 13.9387 38.7731C13.9479 38.754 13.9531 38.7329 13.9541 38.7114C13.955 38.6899 13.9516 38.6684 13.9442 38.6484C13.9367 38.6284 13.9253 38.6104 13.9108 38.5955C13.8963 38.5806 13.879 38.5692 13.86 38.5621C12.6483 38.0631 11.4747 37.4634 10.35 36.7688C10.3294 36.7561 10.3122 36.7381 10.2997 36.7164C10.2872 36.6948 10.28 36.6701 10.2786 36.6447C10.2772 36.6194 10.2817 36.594 10.2917 36.5709C10.3017 36.5479 10.3169 36.5278 10.3359 36.5126C10.5722 36.3227 10.8084 36.1238 11.0334 35.9248C11.0533 35.9077 11.0771 35.8967 11.1024 35.893C11.1277 35.8893 11.1534 35.893 11.1769 35.9038C18.5428 39.5085 26.5162 39.5085 33.7922 35.9038C33.8164 35.8921 33.8432 35.888 33.8695 35.8917C33.8958 35.8954 33.9206 35.9069 33.9412 35.9248C34.1662 36.1238 34.4025 36.3227 34.6387 36.5126C34.6579 36.5276 34.6733 36.5474 34.6835 36.5703C34.6937 36.5933 34.6985 36.6185 34.6974 36.6439C34.6963 36.6693 34.6893 36.694 34.6771 36.7158C34.6649 36.7376 34.6479 36.7558 34.6275 36.7688C33.5053 37.4697 32.3302 38.0686 31.1147 38.5591C31.0959 38.5669 31.0788 38.5788 31.0646 38.5941C31.0503 38.6094 31.0393 38.6278 31.0321 38.6479C31.0249 38.6681 31.0218 38.6897 31.023 38.7113C31.0241 38.7329 31.0295 38.7539 31.0387 38.7731C31.7137 40.1747 32.4872 41.5129 33.3365 42.7788C33.3537 42.805 33.3782 42.8247 33.4066 42.835C33.4349 42.8453 33.4655 42.8457 33.494 42.836C37.5407 41.5069 41.3462 39.448 44.7469 36.7477C44.7638 36.7349 44.7778 36.7183 44.788 36.699C44.7982 36.6797 44.8043 36.6583 44.8059 36.6362C45.7453 26.2347 43.2337 17.1986 38.1515 9.1903C38.1464 9.17707 38.1388 9.16514 38.1291 9.15528C38.1194 9.14541 38.1079 9.13783 38.0953 9.13303ZM15.0384 31.1566C12.8194 31.1566 10.994 28.9745 10.994 26.298C10.994 23.6185 12.7856 21.4363 15.0384 21.4363C17.3081 21.4363 19.1165 23.6366 19.0828 26.298C19.0828 28.9745 17.2912 31.1566 15.0384 31.1566ZM29.9897 31.1566C27.7734 31.1566 25.9453 28.9745 25.9453 26.298C25.9453 23.6185 27.7369 21.4363 29.9897 21.4363C32.2594 21.4363 34.0706 23.6366 34.034 26.298C34.034 28.9745 32.2594 31.1566 29.9897 31.1566Z" fill="white"/>
</g>
<defs>
<clipPath id="clip0_1_13">
<rect width="45" height="48.2247" fill="white" transform="translate(0 0.371094)"/>
</clipPath>
</defs>
</svg>
