<svg width="43" height="40" viewBox="0 0 43 40" fill="none" xmlns="http://www.w3.org/2000/svg">
<path d="M31.1355 25.8597C33.1899 23.1683 34.4035 19.8455 34.4035 16.25C34.4035 7.27537 26.8426 0 17.5157 0C8.18884 0 0.62793 7.27537 0.62793 16.25C0.62793 25.2246 8.18884 32.5 17.5157 32.5C21.2533 32.5 24.7073 31.3316 27.5048 29.3538L27.5026 29.3554C27.5792 29.4554 27.6645 29.5511 27.7586 29.6416L37.7626 39.2678C38.7772 40.2441 40.4222 40.2441 41.4369 39.2678C42.4515 38.2915 42.4515 36.7085 41.4369 35.7322L31.4329 26.1061C31.3388 26.0156 31.2394 25.9334 31.1355 25.8597ZM31.8054 16.25C31.8054 23.8439 25.4077 30 17.5157 30C9.62375 30 3.22605 23.8439 3.22605 16.25C3.22605 8.65608 9.62375 2.5 17.5157 2.5C25.4077 2.5 31.8054 8.65608 31.8054 16.25Z" fill="#C4C4C4"/>
</svg>
