<svg width="45" height="49" viewBox="0 0 45 49" fill="none" xmlns="http://www.w3.org/2000/svg">
<path d="M45 24.1123C45 37.4292 34.9264 48.2247 22.5 48.2247C10.0736 48.2247 0 37.4292 0 24.1123C0 10.7955 10.0736 0 22.5 0C34.9264 0 45 10.7955 45 24.1123ZM23.3064 17.8009C21.118 18.7764 16.7441 20.7954 10.1849 23.8579C9.1198 24.3118 8.56185 24.7559 8.51105 25.1901C8.42521 25.9239 9.2827 26.2128 10.4504 26.6063C10.6092 26.6598 10.7738 26.7153 10.9425 26.774C12.0913 27.1742 13.6367 27.6424 14.44 27.661C15.1688 27.6779 15.9821 27.3559 16.8801 26.6951C23.0085 22.2618 26.1721 20.021 26.3707 19.9727C26.5108 19.9386 26.705 19.8958 26.8365 20.0211C26.9681 20.1464 26.9552 20.3837 26.9412 20.4474C26.8563 20.8355 23.4903 24.189 21.7485 25.9244C21.2054 26.4654 20.8203 26.8492 20.7415 26.9369C20.5651 27.1332 20.3853 27.3189 20.2126 27.4974C19.1453 28.6 18.3449 29.4268 20.2569 30.777C21.1757 31.4259 21.9109 31.9625 22.6444 32.4978C23.4454 33.0824 24.2444 33.6654 25.2781 34.3916C25.5415 34.5766 25.793 34.7688 26.038 34.956C26.9702 35.6682 27.8078 36.308 28.8425 36.206C29.4437 36.1467 30.0647 35.5409 30.3801 33.7339C31.1255 29.4636 32.5907 20.2112 32.9293 16.3985C32.9589 16.0644 32.9216 15.6369 32.8916 15.4492C32.8617 15.2616 32.799 14.9942 32.5714 14.7963C32.3018 14.5618 31.8857 14.5124 31.6995 14.5159C30.8533 14.5319 29.5549 15.0157 23.3064 17.8009Z" fill="white"/>
</svg>
