<svg width="45" height="46" viewBox="0 0 45 46" fill="none" xmlns="http://www.w3.org/2000/svg">
<path d="M43.7212 18.987C43.9857 20.4741 44.1098 21.994 44.1098 23.5056C44.1098 30.2713 41.6627 35.991 37.405 39.8641H37.4133C33.6848 43.2633 28.5674 45.2325 22.4992 45.2325C13.9923 45.2325 6.21282 40.4933 2.39336 32.9841C-0.797784 26.7005 -0.79779 19.2975 2.39336 13.0139C6.21281 5.49653 13.9923 0.757297 22.4992 0.757297C28.0879 0.691928 33.4864 2.76739 37.5539 6.54243L31.1302 12.8914C28.8071 10.7015 25.7069 9.50854 22.4992 9.55756C16.6295 9.55756 11.6444 13.4715 9.86693 18.7419C8.92446 21.5037 8.92446 24.4943 9.86693 27.2561H9.8752C11.6609 32.5183 16.6378 36.4323 22.5075 36.4323C25.5416 36.4323 28.1458 35.6642 30.163 34.3078H30.1547C32.5274 32.7553 34.1478 30.3121 34.6521 27.5503H22.4992V18.987H43.7212Z" fill="#D9D9D9"/>
</svg>
