<svg width="261" height="43" viewBox="0 0 261 43" fill="none" xmlns="http://www.w3.org/2000/svg">
<path d="M117.67 42.6V6.88H122.382V42.6H117.67ZM138.636 42.6V6.88H143.348V42.6H138.636Z" fill="white"/>
<path d="M174.667 30C174.667 32.9455 177.054 35.3333 180 35.3333C182.946 35.3333 185.333 32.9455 185.333 30C185.333 27.0545 182.946 24.6667 180 24.6667C177.054 24.6667 174.667 27.0545 174.667 30ZM249.667 30C249.667 32.9455 252.054 35.3333 255 35.3333C257.946 35.3333 260.333 32.9455 260.333 30C260.333 27.0545 257.946 24.6667 255 24.6667C252.054 24.6667 249.667 27.0545 249.667 30ZM180 31L255 31V29L180 29V31Z" fill="#D9D9D9"/>
<path d="M0.666667 30C0.666667 32.9455 3.05448 35.3333 6 35.3333C8.94552 35.3333 11.3333 32.9455 11.3333 30C11.3333 27.0545 8.94552 24.6667 6 24.6667C3.05448 24.6667 0.666667 27.0545 0.666667 30ZM75.6667 30C75.6667 32.9455 78.0545 35.3333 81 35.3333C83.9455 35.3333 86.3333 32.9455 86.3333 30C86.3333 27.0545 83.9455 24.6667 81 24.6667C78.0545 24.6667 75.6667 27.0545 75.6667 30ZM6 31L81 31V29L6 29V31Z" fill="#D9D9D9"/>
</svg>
